<svg id="Capa_1" data-name="Capa 1" xmlns="http://www.w3.org/2000/svg" xmlns:xlink="http://www.w3.org/1999/xlink" viewBox="0 0 428.21 427.32"><defs><style>.cls-1{fill:url(#radial-gradient);}.cls-2,.cls-3{fill:none;stroke:#fff;stroke-miterlimit:10;}.cls-2{stroke-width:35.07px;}.cls-3{stroke-width:42.86px;}.cls-4{fill:#fff;}</style><radialGradient id="radial-gradient" cx="207.35" cy="633.6" r="431.68" gradientUnits="userSpaceOnUse"><stop offset="0" stop-color="#ffda72"/><stop offset="0.25" stop-color="#f3a94b"/><stop offset="0.38" stop-color="#ea5132"/><stop offset="0.7" stop-color="#c5257e"/><stop offset="0.96" stop-color="#6962aa"/><stop offset="0.99" stop-color="#6068ae"/></radialGradient></defs><title>Insta</title><path class="cls-1" d="M511.1,541c0,51.7-41.71,93.61-93.17,93.61H176.06c-51.45,0-93.17-41.91-93.17-93.61V301c0-51.7,41.71-93.61,93.17-93.61H417.94c51.45,0,93.17,41.91,93.17,93.61V541Z" transform="translate(-82.9 -207.34)"/><rect class="cls-2" x="70.35" y="66.05" width="287.51" height="296.12" rx="79.57" ry="79.57"/><path class="cls-3" d="M367.59,421c-0.85,39-31.6,70.59-70.59,70.59A70.59,70.59,0,0,1,226.41,421c0-39,31.62-71.72,70.59-70.59C344.47,351.8,368.44,382.15,367.59,421Z" transform="translate(-82.9 -207.34)"/><circle class="cls-4" cx="301.05" cy="126.38" r="19.8"/></svg>