<?xml version="1.0" encoding="utf-8"?>
<!-- Generator: Adobe Illustrator 19.2.0, SVG Export Plug-In . SVG Version: 6.00 Build 0)  -->
<svg version="1.1" id="Layer_1" xmlns="http://www.w3.org/2000/svg" xmlns:xlink="http://www.w3.org/1999/xlink" x="0px" y="0px"
	 viewBox="0 0 960 560" style="enable-background:new 0 0 960 560;" xml:space="preserve">
<style type="text/css">
	.st0{fill:#3AA4C6;}
	.st1{clip-path:url(#SVGID_2_);}
	.st2{clip-path:url(#SVGID_4_);fill:#FFFFFF;}
	.st3{clip-path:url(#SVGID_6_);}
	.st4{clip-path:url(#SVGID_8_);fill:#D75444;}
	.st5{clip-path:url(#SVGID_12_);}
	.st6{clip-path:url(#SVGID_14_);fill-rule:evenodd;clip-rule:evenodd;fill:#FF2600;}
	.st7{clip-path:url(#SVGID_16_);}
	.st8{clip-path:url(#SVGID_18_);fill:#FFFFFF;}
	.st9{clip-path:url(#SVGID_20_);}
	.st10{clip-path:url(#SVGID_22_);fill:#FFFFFF;}
</style>
<rect class="st0" width="960" height="560"/>
<g>
	<defs>
		<rect id="SVGID_1_" x="101.3" y="145.3" width="876" height="260"/>
	</defs>
	<clipPath id="SVGID_2_">
		<use xlink:href="#SVGID_1_"  style="overflow:visible;"/>
	</clipPath>
	<g class="st1">
		<defs>
			<path id="SVGID_3_" d="M234.9,316c8.2,0,40.8-36.9,40.8-61.7c0-23.7-18.5-43.3-40.8-43.3c-23.4,0-41.9,19.6-41.9,43.3
				C192.9,279.1,225.5,316,234.9,316z"/>
		</defs>
		<clipPath id="SVGID_4_">
			<use xlink:href="#SVGID_3_"  style="overflow:visible;"/>
		</clipPath>
		<rect x="187.9" y="206" class="st2" width="92.7" height="115"/>
	</g>
</g>
<g>
	<defs>
		<rect id="SVGID_5_" x="101.3" y="145.3" width="876" height="260"/>
	</defs>
	<clipPath id="SVGID_6_">
		<use xlink:href="#SVGID_5_"  style="overflow:visible;"/>
	</clipPath>
	<g class="st3">
		<defs>
			<path id="SVGID_7_" d="M235,276.9c13.2,0,24.5-11.2,24.5-24.2c0-14.5-11.3-25.6-24.5-25.6c-14.6,0-25.9,11.2-25.9,25.6
				C209.1,265.7,220.4,276.9,235,276.9z"/>
		</defs>
		<clipPath id="SVGID_8_">
			<use xlink:href="#SVGID_7_"  style="overflow:visible;"/>
		</clipPath>
		<rect x="204.1" y="222" class="st4" width="60.4" height="59.8"/>
	</g>
</g>
<g>
	<defs>
		<rect id="SVGID_9_" x="208.9" y="227" width="51" height="50"/>
	</defs>
	<clipPath id="SVGID_10_">
		<use xlink:href="#SVGID_9_"  style="overflow:visible;"/>
	</clipPath>
	<g style="clip-path:url(#SVGID_10_);">
		<image style="overflow:visible;" width="51" height="50" xlink:href="FDB702C3.png"  transform="matrix(1 0 0 1 208.9151 227)">
		</image>
	</g>
</g>
<g>
	<defs>
		<rect id="SVGID_11_" x="101.3" y="145.3" width="876" height="260"/>
	</defs>
	<clipPath id="SVGID_12_">
		<use xlink:href="#SVGID_11_"  style="overflow:visible;"/>
	</clipPath>
	<g class="st5">
		<defs>
			<path id="SVGID_13_" d="M235,276.9c13.2,0,24.5-11.2,24.5-24.2c0-14.5-11.3-25.6-24.5-25.6c-14.6,0-25.9,11.2-25.9,25.6
				C209.1,265.7,220.4,276.9,235,276.9z"/>
		</defs>
		<clipPath id="SVGID_14_">
			<use xlink:href="#SVGID_13_"  style="overflow:visible;"/>
		</clipPath>
		<path class="st6" d="M74.3,276.9c13.2,0,24.5-11.2,24.5-24.2c0-14.5-11.3-25.6-24.5-25.6c-14.6,0-25.9,11.2-25.9,25.6
			C48.4,265.7,59.7,276.9,74.3,276.9z M36.4,215h80.4v81.8H36.4V215z"/>
	</g>
</g>
<g>
	<defs>
		<rect id="SVGID_15_" x="101.3" y="145.3" width="876" height="260"/>
	</defs>
	<clipPath id="SVGID_16_">
		<use xlink:href="#SVGID_15_"  style="overflow:visible;"/>
	</clipPath>
	<g class="st7">
		<defs>
			<ellipse id="SVGID_17_" cx="224.4" cy="236.8" rx="9.9" ry="9.8"/>
		</defs>
		<clipPath id="SVGID_18_">
			<use xlink:href="#SVGID_17_"  style="overflow:visible;"/>
		</clipPath>
		<rect x="209.5" y="222" class="st8" width="29.8" height="29.6"/>
	</g>
</g>
<g>
	<defs>
		<rect id="SVGID_19_" x="101.3" y="145.3" width="876" height="260"/>
	</defs>
	<clipPath id="SVGID_20_">
		<use xlink:href="#SVGID_19_"  style="overflow:visible;"/>
	</clipPath>
	<g class="st9">
		<defs>
			<path id="SVGID_21_" d="M741.6,270.4c1.7-11,9.7-16.8,18.9-16.8c8.2,0,15.2,5.3,15.6,16.8H741.6z M733.6,276.1
				c0,16.9,12.3,28.7,28.7,28.7c12.3,0,20.3-7.6,20.3-7.6l-3.4-5.7c0,0-6.6,6.6-16.7,6.6c-11.3,0-20.9-7.6-21.3-21.7h42.1
				c0,0,0.2-2.5,0.2-3.8c0-13.6-7.7-25.3-22.9-25.3C745.8,247.4,733.6,258.1,733.6,276.1z M682.4,276.2c0-15.6,8.6-22.1,17.8-22.1
				c10.2,0,17.3,8.6,17.3,22c0,14-8,22.1-17.7,22.1C688.5,298.3,682.4,287.2,682.4,276.2z M675.2,325.3h7.4v-26.2
				c0-2.8-0.2-4.8-0.2-4.8h0.2c0,0,4.8,10.5,18,10.5c14.2,0,24.5-11.3,24.5-28.7c0-17-9.2-28.8-23.9-28.8c-14.5,0-19,10.9-19,10.9
				h-0.2c0,0,0.2-1.9,0.2-4.3v-5.3h-7.1V325.3z M614,275.8c0-12.4,9.6-21.7,21.4-21.7c11.8,0,21.4,9.3,21.4,21.7
				c0,12.8-9.6,22.3-21.4,22.3C623.6,298.1,614,288.6,614,275.8z M606.4,275.8c0,16.6,13,29,29,29s29-12.4,29-29
				c0-16.2-13-28.4-29-28.4S606.4,259.6,606.4,275.8z M548.8,276.1c0,17,12.5,28.7,28.8,28.7c14,0,21.4-8.6,21.4-8.6l-3.4-5.8
				c0,0-6.4,7.7-17.5,7.7c-12.1,0-21.6-9.2-21.6-22c0-13.1,9.4-22,21.4-22c9.9,0,16,6.6,16,6.6l3.8-5.6c0,0-6.6-7.8-20.1-7.8
				C561.4,247.4,548.8,259.2,548.8,276.1z M501.8,296.8c0,0,7,8,20.3,8c11,0,18.7-6.4,18.7-15.4c0-18.1-29.5-14.8-29.5-26.9
				c0-6.1,5.3-8.5,10.9-8.5c9,0,13.7,5,13.7,5l3.4-5.7c0,0-5.3-6-16.9-6c-9.9,0-18.7,5.3-18.7,15.2c0,17.9,29.5,14.9,29.5,26.9
				c0,5.8-5.1,8.7-11,8.7c-10.2,0-16.4-6.6-16.4-6.6L501.8,296.8z M483,303.5h7.4v-54.8H483V303.5z M482.8,236.1h7.7v-9.3h-7.7
				V236.1z M445.2,303.5h7.4v-23.1c0-3.5,0.4-7.2,1.5-10.7c2.4-8.1,8.2-14.2,15.9-14.2c1.4,0,2.7,0.2,2.7,0.2v-7.3
				c0,0-1.4-0.3-2.9-0.3c-8.6,0-14.7,6.3-17.3,14.6h-0.2c0,0,0.2-2,0.2-4.4v-9.7h-7.3V303.5z M390.1,270.4
				c1.7-11,9.7-16.8,18.9-16.8c8.2,0,15.2,5.3,15.6,16.8H390.1z M382.1,276.1c0,16.9,12.3,28.7,28.7,28.7c12.3,0,20.3-7.6,20.3-7.6
				l-3.4-5.7c0,0-6.6,6.6-16.7,6.6c-11.3,0-20.9-7.6-21.3-21.7h42.1c0,0,0.2-2.5,0.2-3.8c0-13.6-7.7-25.3-22.9-25.3
				C394.3,247.4,382.1,258.1,382.1,276.1z M332.4,266.6v-33h18.1c10.1,0,16.8,6,16.8,16.4c0,10.5-6.6,16.7-16.9,16.7H332.4z
				 M324.9,303.5h7.5v-30.1h19c13.7,0,23.7-9.2,23.7-23.4c0-14.2-9.9-23.1-23.7-23.1h-26.5V303.5z"/>
		</defs>
		<clipPath id="SVGID_22_">
			<use xlink:href="#SVGID_21_"  style="overflow:visible;"/>
		</clipPath>
		<rect x="319.9" y="221.9" class="st10" width="468.6" height="108.4"/>
	</g>
</g>
</svg>
