<svg id="Layer_1" data-name="Layer 1" xmlns="http://www.w3.org/2000/svg" viewBox="0 0 432 432"><defs><style>.cls-1{fill:#fffc00;}.cls-2{fill:#fff;}.cls-3{fill:#030303;}</style></defs><title>snapchat</title><path class="cls-1" d="M-32.83-180A68.84,68.84,0,0,1,36-111.16V183.17A68.84,68.84,0,0,1-32.83,252H-327.16A68.84,68.84,0,0,1-396,183.17V-111.16A68.84,68.84,0,0,1-327.16-180H-32.83Z" transform="translate(396 180)"/><path class="cls-2" d="M-178.41,184.52c-0.82,0-1.62,0-2.42-.06h0c-0.51,0-1,.06-1.58.06-18.75,0-30.78-8.51-42.42-16.73-8-5.68-15.62-11-24.55-12.52a79.27,79.27,0,0,0-12.89-1.09,88.17,88.17,0,0,0-17.86,2,39.1,39.1,0,0,1-6.66,1c-1.81,0-3.77-.39-4.63-3.31-0.74-2.52-1.28-5-1.79-7.33-1.33-6.09-2.27-9.83-4.82-10.22-29.74-4.59-38.25-10.86-40.14-15.3a5.73,5.73,0,0,1-.46-1.9,3.35,3.35,0,0,1,2.8-3.49c45.71-7.53,66.21-54.25,67.06-56.23l0.07-.16c2.8-5.67,3.35-10.59,1.63-14.63-3.14-7.39-13.37-10.64-20.14-12.79-1.66-.52-3.23-1-4.47-1.51-13.51-5.34-14.64-10.83-14.11-13.62,0.91-4.76,7.27-8.08,12.42-8.08a8.7,8.7,0,0,1,3.7.74c6.08,2.85,11.56,4.29,16.29,4.29,6.53,0,9.38-2.75,9.73-3.11-0.17-3.09-.37-6.32-0.58-9.66-1.36-21.61-3-48.46,3.79-63.79,20.49-45.95,63.95-49.52,76.78-49.52l5.62-.06h0.76c12.86,0,56.41,3.58,76.91,49.55,6.84,15.34,5.15,42.21,3.78,63.81l-0.06.94c-0.19,3-.37,5.93-0.52,8.73,0.33,0.33,2.95,2.86,8.87,3.09h0c4.5-.17,9.67-1.61,15.35-4.27a11.58,11.58,0,0,1,4.77-.94,14.57,14.57,0,0,1,5.49,1l0.1,0c4.59,1.63,7.6,4.85,7.66,8.21,0.06,3.17-2.36,7.93-14.22,12.61-1.23.48-2.8,1-4.46,1.51-6.78,2.15-17,5.4-20.14,12.79-1.71,4-1.16,9,1.63,14.62,0,0.05.05,0.11,0.07,0.17,0.85,2,21.33,48.69,67.06,56.22a3.35,3.35,0,0,1,2.8,3.49,5.62,5.62,0,0,1-.47,1.91c-1.89,4.41-10.39,10.67-40.14,15.26-2.43.37-3.37,3.54-4.82,10.18-0.53,2.42-1.06,4.79-1.8,7.29a4,4,0,0,1-4.25,3.18H-74a37.24,37.24,0,0,1-6.66-.84,88.8,88.8,0,0,0-17.87-1.89,79.36,79.36,0,0,0-12.9,1.09c-8.92,1.49-16.5,6.84-24.52,12.51C-147.63,176-159.66,184.52-178.41,184.52Z" transform="translate(396 180)"/><path class="cls-3" d="M-177.29-109.17c12.17,0,54.1,3.27,73.85,47.56,6.5,14.58,4.84,41,3.5,62.23-0.21,3.37-.42,6.63-0.59,9.75l-0.07,1.34,0.9,1c0.36,0.4,3.74,3.94,11.26,4.23h0.25c5-.19,10.57-1.73,16.66-4.58a8.1,8.1,0,0,1,3.35-.62,11.22,11.22,0,0,1,4.23.8l0.19,0.08c3.19,1.12,5.44,3.23,5.48,5.13,0,1.08-.79,5-12.1,9.43-1.1.44-2.56,0.9-4.25,1.43C-82,30.93-93.09,34.46-96.84,43.27c-2.11,5-1.53,10.83,1.71,17.42,1.34,3.12,22.33,50.43,69.6,58.21a2.17,2.17,0,0,1-.19.76c-0.8,1.89-5.9,8.4-37.57,13.29-5,.76-6.18,6.32-7.59,12.78-0.5,2.31-1,4.64-1.74,7.06-0.21.73-.26,0.77-1,0.77H-74a35.07,35.07,0,0,1-6-.78,92.74,92.74,0,0,0-18.51-2A82.5,82.5,0,0,0-112,152c-9.69,1.61-17.58,7.19-25.93,13.09-11.21,7.93-22.8,16.12-40.49,16.12-0.77,0-1.52,0-2.28-.06h-0.2l-0.2,0c-0.43,0-.87.05-1.32,0.05-17.68,0-29.28-8.19-40.49-16.12-8.35-5.9-16.24-11.48-25.93-13.1a82.51,82.51,0,0,0-13.44-1.13,91.25,91.25,0,0,0-18.51,2.08,37.57,37.57,0,0,1-6,.9c-1.15,0-1.17-.07-1.41-0.89-0.71-2.42-1.23-4.81-1.74-7.12-1.41-6.46-2.63-12-7.59-12.81-31.68-4.89-36.77-11.42-37.58-13.3a2.19,2.19,0,0,1-.19-0.77C-288,111.12-267,63.81-265.7,60.69c3.25-6.59,3.82-12.45,1.71-17.41-3.74-8.81-14.86-12.34-22.21-14.68-1.69-.53-3.14-1-4.25-1.43-9.55-3.77-12.49-7.57-12-9.88,0.51-2.66,5.11-5.36,9.12-5.36a5.47,5.47,0,0,1,2.28.42c6.53,3.05,12.49,4.61,17.71,4.61,8.22,0,11.87-3.82,12.26-4.26l0.89-1-0.07-1.33c-0.17-3.12-.37-6.38-0.59-9.74-1.34-21.23-3-47.63,3.5-62.22,19.68-44.13,61.4-47.53,73.72-47.53l5.66-.05h0.73m0-6.7h-0.8l-5.59.05c-13.33,0-58.51,3.71-79.83,51.51C-270.68-48.23-269-20.93-267.58,1c0.16,2.59.34,5.27,0.48,7.87a12.88,12.88,0,0,1-6.29,1.37c-4.23,0-9.23-1.34-14.86-4a12,12,0,0,0-5.12-1.05c-6.59,0-14.48,4.34-15.71,10.8-0.89,4.66,1.2,11.45,16.17,17.36,1.35,0.53,3,1,4.69,1.59,6.18,2,15.53,4.93,18.07,10.9,1.31,3.1.79,7.08-1.55,11.84l-0.15.33c-0.82,1.91-20.6,47-64.52,54.24a6.71,6.71,0,0,0-5.6,7,9,9,0,0,0,.71,3c3.3,7.71,17.2,13.35,42.52,17.28,0.85,1.14,1.73,5.19,2.26,7.65s1.07,4.94,1.85,7.58,2.75,5.71,7.84,5.71a40.75,40.75,0,0,0,7.3-1,85.34,85.34,0,0,1,17.22-2,75.85,75.85,0,0,1,12.35,1c8.17,1.36,15.11,6.27,23.15,11.95,11.51,8.14,24.55,17.35,44.36,17.35,0.54,0,1.09,0,1.63-.06s1.48,0.06,2.37.06c19.82,0,32.85-9.22,44.36-17.35,8.05-5.69,15-10.59,23.16-12a75.71,75.71,0,0,1,12.35-1,85.87,85.87,0,0,1,17.22,1.83,40.44,40.44,0,0,0,7.3.9h0.37a7.28,7.28,0,0,0,7.47-5.6c0.76-2.59,1.31-5,1.85-7.5s1.41-6.48,2.26-7.62c25.32-3.93,39.23-9.57,42.52-17.24a8.91,8.91,0,0,0,.72-3,6.7,6.7,0,0,0-5.6-7C-68.38,105-88.14,60-89,58c0-.11-0.1-0.22-0.15-0.33C-91.46,53-92,49-90.67,45.89c2.53-6,11.88-8.94,18.06-10.9,1.73-.55,3.36-1.07,4.69-1.59,11-4.33,16.45-9.64,16.33-15.79-0.09-4.83-3.86-9.14-9.84-11.28h0A18,18,0,0,0-68.18,5a14.9,14.9,0,0,0-6.19,1.25c-5.21,2.44-9.89,3.77-13.93,3.95a12.37,12.37,0,0,1-5.43-1.35c0.13-2.23.27-4.52,0.42-6.91L-93.24,1c1.39-22,3.11-49.29-4.07-65.38-21.32-47.81-66.6-51.53-80-51.53h0Z" transform="translate(396 180)"/></svg>